<?xml version="1.0" encoding="utf-8"?>
<!-- Generator: Adobe Illustrator 21.0.0, SVG Export Plug-In . SVG Version: 6.00 Build 0)  -->
<svg version="1.1" id="Layer_1" xmlns="http://www.w3.org/2000/svg" xmlns:xlink="http://www.w3.org/1999/xlink" x="0px" y="0px"
	 viewBox="0 0 900 337.5" style="enable-background:new 0 0 900 337.5;" xml:space="preserve">
<style type="text/css">
	.st0{fill:#E2DED6;}
	.st1{fill:none;stroke:#FFFFFF;stroke-width:0.5;stroke-miterlimit:10;}
	.st2{clip-path:url(#SVGID_2_);fill:none;stroke:#FA8072;stroke-linecap:round;stroke-linejoin:round;stroke-miterlimit:10;}
	.st3{clip-path:url(#SVGID_2_);fill:none;stroke:#2C9F2C;stroke-linecap:round;stroke-linejoin:round;stroke-miterlimit:10;}
	.st4{clip-path:url(#SVGID_2_);fill:none;stroke:#B24242;stroke-linecap:round;stroke-linejoin:round;stroke-miterlimit:10;}
	.st5{clip-path:url(#SVGID_2_);fill:none;stroke:#FFA500;stroke-linecap:round;stroke-linejoin:round;stroke-miterlimit:10;}
	.st6{clip-path:url(#SVGID_2_);fill:none;stroke:#FFD700;stroke-linecap:round;stroke-linejoin:round;stroke-miterlimit:10;}
	.st7{clip-path:url(#SVGID_2_);fill:none;stroke:#51DE61;stroke-linecap:round;stroke-linejoin:round;stroke-miterlimit:10;}
	.st8{clip-path:url(#SVGID_2_);fill:none;stroke:#808000;stroke-linecap:round;stroke-linejoin:round;stroke-miterlimit:10;}
	.st9{clip-path:url(#SVGID_2_);fill:none;stroke:#84AC39;stroke-linecap:round;stroke-linejoin:round;stroke-miterlimit:10;}
	.st10{clip-path:url(#SVGID_2_);fill:none;stroke:#B16E6E;stroke-linecap:round;stroke-linejoin:round;stroke-miterlimit:10;}
	.st11{clip-path:url(#SVGID_2_);fill:none;stroke:#B9A76C;stroke-linecap:round;stroke-linejoin:round;stroke-miterlimit:10;}
	.st12{fill:none;stroke:#272525;stroke-width:0.5;stroke-miterlimit:10;}
	.st13{fill:#272525;}
	.st14{font-family:'Helvetica';}
	.st15{font-size:12px;}
</style>
<g>
	<rect x="39.8" y="2.5" class="st0" width="850" height="300"/>
	<path class="st1" d="M39.8,254.5h850 M39.8,206.5h850 M39.8,158.5h850 M39.8,110.5h850 M39.8,62.5h850 M39.8,14.5h850 M209.8,302.5
		V2.5 M379.8,302.5V2.5 M549.8,302.5V2.5 M719.8,302.5V2.5"/>
	<g>
		<defs>
			<rect id="SVGID_1_" x="39.8" y="2.5" width="850" height="300"/>
		</defs>
		<clipPath id="SVGID_2_">
			<use xlink:href="#SVGID_1_"  style="overflow:visible;"/>
		</clipPath>
		<polyline class="st2" points="39.8,268.4 41.5,262.7 43.2,258.8 44.9,268.9 46.6,278 48.3,276.6 50,270.8 51.7,278 53.4,275.1 
			55.1,276.6 56.8,286.2 58.5,287.1 60.2,283.3 61.9,287.1 63.6,290.5 65.3,286.7 67,283.3 68.7,281.9 70.4,285.2 72.1,287.1 
			73.8,281.4 75.5,285.7 77.2,281.9 78.9,277.1 80.6,277.1 82.3,282.8 84,280.4 85.7,274.2 87.4,281.9 89.1,281.9 90.8,286.7 
			92.5,286.2 94.2,288.1 95.9,281.9 97.6,276.1 99.3,255.9 101,272.7 102.7,269.9 104.4,257.4 106.1,257.9 107.8,254 109.5,259.8 
			111.2,252.6 112.9,261.7 114.6,274.7 116.3,265.1 118,268.9 119.7,271.3 121.4,276.6 123.1,263.1 124.8,267.5 126.5,262.2 
			128.2,270.8 129.9,262.2 131.6,259.3 133.3,258.8 135,269.9 136.7,275.6 138.4,273.7 140.1,272.7 141.8,276.6 143.5,280.9 
			145.2,280.4 146.9,283.3 148.6,274.7 150.3,262.7 152,273.2 153.7,278.5 155.4,278 157.1,282.3 158.8,279.9 160.5,274.7 
			162.2,270.8 163.9,265.5 165.6,250.7 167.3,263.1 169,259.8 170.7,260.7 172.4,252.1 174.1,255.9 175.8,255 177.5,267 
			179.2,286.7 180.9,284.7 182.6,284.7 184.3,288.6 186,289.1 187.7,284.7 189.4,287.6 191.1,282.3 192.8,288.1 194.5,286.7 
			196.2,280.9 197.9,287.1 199.6,279.5 201.3,277.5 203,280.4 204.7,278.5 206.4,278.5 208.1,279.9 209.8,276.1 211.5,290 
			213.2,287.6 214.9,291 216.6,285.7 218.3,291 220,282.3 221.7,279.5 223.4,279.9 225.1,272.3 226.8,278 228.5,273.7 230.2,269.9 
			231.9,275.6 233.6,282.3 235.3,283.8 237,282.8 238.7,280.4 240.4,273.2 242.1,268.4 243.8,282.3 245.5,275.1 247.2,257.4 
			248.9,262.7 250.6,258.3 252.3,263.6 254,271.3 255.7,275.1 257.4,271.8 259.1,270.8 260.8,265.5 262.5,270.8 264.2,270.8 
			265.9,277.1 267.6,272.3 269.3,278.5 271,277.1 272.7,272.7 274.4,282.3 276.1,271.8 277.8,277.5 279.5,259.8 281.2,248.3 
			282.9,249.2 284.6,246.8 286.3,237.2 288,248.7 289.7,259.8 291.4,276.1 293.1,276.6 294.8,278 296.5,268.4 298.2,262.7 
			299.9,268.4 301.6,264.6 303.3,270.8 305,284.3 306.7,278.5 308.4,283.3 310.1,280.9 311.8,278 313.5,274.2 315.2,276.6 
			316.9,271.3 318.6,264.6 320.3,266 322,257.9 323.7,262.7 325.4,260.3 327.1,268.4 328.8,265.5 330.5,260.7 332.2,259.3 
			333.9,259.8 335.6,274.7 337.3,279.5 339,277.5 340.7,279.5 342.4,280.4 344.1,275.6 345.8,267.5 347.5,268.9 349.2,261.2 
			350.9,257.4 352.6,268.9 354.3,272.7 356,279 357.7,282.8 359.4,280.4 361.1,284.3 362.8,287.6 364.5,278 366.2,279.9 
			367.9,283.3 369.6,278.5 371.3,279.9 373,285.2 374.7,277.5 376.4,269.4 378.1,266 379.8,261.2 381.5,257.9 383.2,253.5 
			384.9,249.2 386.6,267.5 388.3,278.5 390,277.5 391.7,279.5 393.4,275.6 395.1,274.7 396.8,269.9 398.5,272.7 400.2,256.4 
			401.9,248.3 403.6,270.3 405.3,255.9 407,265.5 408.7,273.2 410.4,279.5 412.1,271.3 413.8,276.6 415.5,268.4 417.2,272.7 
			418.9,275.6 420.6,285.7 422.3,283.8 424,284.7 425.7,290 427.4,279 429.1,262.7 430.8,248.7 432.5,258.3 434.2,270.3 
			435.9,277.5 437.6,271.3 439.3,271.8 441,265.5 442.7,260.3 444.4,263.1 446.1,279.5 447.8,284.3 449.5,281.9 451.2,284.3 
			452.9,286.2 454.6,273.7 456.3,284.3 458,287.6 459.7,287.1 461.4,287.1 463.1,280.4 464.8,293.9 466.5,289.5 468.2,288.1 
			469.9,279.9 471.6,282.3 473.3,283.3 475,273.7 476.7,262.2 478.4,264.1 480.1,267 481.8,278 483.5,273.7 485.2,272.3 
			486.9,273.2 488.6,273.7 490.3,282.3 492,284.3 493.7,279.9 495.4,275.1 497.1,264.1 498.8,263.1 500.5,261.2 502.2,268.4 
			503.9,272.7 505.6,279.9 507.3,279.9 509,284.3 510.7,281.9 512.4,282.8 514.1,284.7 515.8,285.7 517.5,282.8 519.2,285.7 
			520.9,278.5 522.6,282.3 524.3,275.6 526,269.9 527.7,272.7 529.4,276.6 531.1,280.9 532.8,283.3 534.5,290 536.2,285.2 
			537.9,284.3 539.6,282.3 541.3,291 543,284.7 544.7,281.9 546.4,282.3 548.1,280.9 549.8,278.5 551.5,273.7 553.2,263.6 
			554.9,274.7 556.6,280.9 558.3,275.1 560,275.1 561.7,270.8 563.4,272.7 565.1,271.8 566.8,275.1 568.5,276.6 570.2,264.1 
			571.9,265.5 573.6,267 575.3,273.7 577,274.7 578.7,278.5 580.4,279 582.1,275.6 583.8,271.8 585.5,256.4 587.2,266 588.9,257.9 
			590.6,265.1 592.3,266 594,268.9 595.7,273.2 597.4,278.5 599.1,269.9 600.8,260.7 602.5,261.2 604.2,259.8 605.9,270.8 
			607.6,276.6 609.3,281.9 611,277.1 612.7,279.9 614.4,276.1 616.1,282.3 617.8,278 619.5,281.4 621.2,277.1 622.9,284.7 
			624.6,284.3 626.3,281.9 628,285.7 629.7,285.2 631.4,276.1 633.1,267 634.8,276.6 636.5,277.5 638.2,282.3 639.9,282.8 
			641.6,281.9 643.3,281.9 645,279 646.7,286.7 648.4,281.9 650.1,287.1 651.8,287.1 653.5,284.3 655.2,286.7 656.9,282.8 
			658.6,278 660.3,276.6 662,275.1 663.7,276.6 665.4,282.3 667.1,285.7 668.8,280.4 670.5,286.2 672.2,279.9 673.9,282.8 
			675.6,285.7 677.3,280.9 679,270.3 680.7,262.7 682.4,263.1 684.1,275.1 685.8,253.1 687.5,258.3 689.2,264.1 690.9,275.1 
			692.6,273.2 694.3,268.9 696,276.1 697.7,278.5 699.4,273.2 701.1,276.1 702.8,266 704.5,278 706.2,284.7 707.9,284.3 709.6,290 
			711.3,286.7 713,289.5 714.7,287.1 716.4,283.3 718.1,282.8 719.8,279.9 721.5,281.9 723.2,274.7 724.9,270.8 726.6,267 
			728.3,277.5 730,280.9 731.7,272.3 733.4,276.1 735.1,279.5 736.8,278 738.5,276.6 740.2,272.3 741.9,278.5 743.6,274.7 
			745.3,278.5 747,279 748.7,279.5 750.4,281.4 752.1,279.9 753.8,281.9 755.5,268.9 757.2,267.5 758.9,263.6 760.6,255 
			762.3,260.3 764,263.6 765.7,267.9 767.4,267.5 769.1,268.9 770.8,265.5 772.5,268.4 774.2,272.3 775.9,282.3 777.6,272.7 
			779.3,281.9 781,277.1 782.7,275.6 784.4,267.5 786.1,267.5 787.8,258.8 789.5,267.9 791.2,273.7 792.9,274.2 794.6,271.3 
			796.3,275.1 798,261.2 799.7,257.4 801.4,268.9 803.1,261.7 804.8,267 806.5,259.8 808.2,259.8 809.9,263.1 811.6,260.3 
			813.3,253.1 815,238.2 816.7,255.9 818.4,255.5 820.1,243.5 821.8,253.5 823.5,258.8 825.2,263.6 826.9,264.6 828.6,256.9 
			830.3,271.8 832,267.9 833.7,259.8 835.4,259.3 837.1,254 838.8,250.2 840.5,248.7 842.2,251.1 843.9,252.1 845.6,259.3 
			847.3,267 849,271.8 850.7,276.6 852.4,271.8 854.1,264.6 855.8,286.2 857.5,276.1 859.2,263.1 860.9,262.2 862.6,263.6 
			864.3,270.8 866,276.6 867.7,271.8 869.4,268.9 871.1,259.8 872.8,266 874.5,265.5 876.2,263.6 877.9,266 879.6,259.8 
			881.3,265.1 883,270.3 884.7,264.6 886.4,258.8 888.1,260.7 		"/>
		<polyline class="st3" points="39.8,280.9 41.5,278.5 43.2,282.3 44.9,276.1 46.6,279 48.3,275.6 50,279.5 51.7,274.2 53.4,267.9 
			55.1,268.9 56.8,281.9 58.5,283.3 60.2,283.3 61.9,286.2 63.6,286.7 65.3,284.7 67,285.2 68.7,288.1 70.4,279.5 72.1,270.3 
			73.8,277.1 75.5,281.4 77.2,285.2 78.9,279.5 80.6,281.4 82.3,288.6 84,288.1 85.7,281.4 87.4,281.4 89.1,284.7 90.8,290.5 
			92.5,290.5 94.2,287.1 95.9,291 97.6,291.5 99.3,292.4 101,291 102.7,289.1 104.4,289.5 106.1,281.4 107.8,277.5 109.5,273.7 
			111.2,275.1 112.9,279.9 114.6,270.8 116.3,275.1 118,279.5 119.7,272.7 121.4,275.1 123.1,270.3 124.8,267 126.5,284.3 
			128.2,289.5 129.9,279.5 131.6,279 133.3,269.9 135,254.5 136.7,272.7 138.4,274.2 140.1,272.3 141.8,274.7 143.5,272.3 
			145.2,269.4 146.9,267.9 148.6,268.9 150.3,271.8 152,269.9 153.7,270.3 155.4,262.7 157.1,255.9 158.8,253.5 160.5,260.7 
			162.2,259.8 163.9,263.6 165.6,252.6 167.3,254.5 169,273.2 170.7,274.7 172.4,268.9 174.1,259.3 175.8,254 177.5,251.6 
			179.2,256.9 180.9,256.9 182.6,261.2 184.3,274.2 186,271.8 187.7,278 189.4,280.9 191.1,278 192.8,282.8 194.5,284.7 
			196.2,286.7 197.9,271.8 199.6,275.1 201.3,264.6 203,267.9 204.7,264.1 206.4,267 208.1,267.5 209.8,269.9 211.5,266.5 
			213.2,266 214.9,255.5 216.6,256.4 218.3,244.9 220,255.5 221.7,250.2 223.4,236.7 225.1,253.1 226.8,255.5 228.5,249.7 
			230.2,260.3 231.9,261.2 233.6,260.3 235.3,261.7 237,264.6 238.7,261.7 240.4,262.7 242.1,265.5 243.8,266 245.5,265.5 
			247.2,267 248.9,268.9 250.6,272.3 252.3,276.1 254,277.5 255.7,279.9 257.4,282.8 259.1,275.1 260.8,268.9 262.5,271.8 
			264.2,267 265.9,262.2 267.6,255.9 269.3,262.2 271,262.7 272.7,262.2 274.4,270.8 276.1,267 277.8,264.1 279.5,259.3 
			281.2,254.5 282.9,261.2 284.6,264.1 286.3,265.1 288,271.3 289.7,263.6 291.4,267 293.1,270.8 294.8,278 296.5,275.1 298.2,279 
			299.9,285.2 301.6,277.5 303.3,274.7 305,275.6 306.7,272.7 308.4,263.6 310.1,275.1 311.8,282.8 313.5,280.9 315.2,285.7 
			316.9,271.3 318.6,263.6 320.3,269.4 322,266 323.7,267.9 325.4,261.7 327.1,262.2 328.8,263.6 330.5,273.7 332.2,283.8 
			333.9,281.4 335.6,272.7 337.3,278 339,278 340.7,270.3 342.4,273.2 344.1,267.5 345.8,264.1 347.5,264.6 349.2,274.7 350.9,278 
			352.6,272.7 354.3,262.7 356,252.6 357.7,247.8 359.4,256.4 361.1,262.7 362.8,262.7 364.5,269.4 366.2,277.5 367.9,275.6 
			369.6,268.4 371.3,258.3 373,257.9 374.7,245.9 376.4,248.3 378.1,252.6 379.8,238.2 381.5,247.8 383.2,260.3 384.9,263.1 
			386.6,275.1 388.3,270.3 390,267.9 391.7,272.7 393.4,270.8 395.1,280.9 396.8,272.7 398.5,271.8 400.2,282.3 401.9,275.6 
			403.6,281.9 405.3,288.1 407,280.4 408.7,271.8 410.4,270.3 412.1,282.8 413.8,280.4 415.5,277.1 417.2,276.1 418.9,278 
			420.6,286.7 422.3,287.6 424,283.3 425.7,293.9 427.4,284.7 429.1,284.7 430.8,276.6 432.5,273.7 434.2,260.3 435.9,275.6 
			437.6,265.1 439.3,267 441,277.5 442.7,283.3 444.4,277.5 446.1,267 447.8,261.7 449.5,270.8 451.2,267.9 452.9,269.4 
			454.6,273.7 456.3,277.1 458,271.8 459.7,266 461.4,264.1 463.1,272.7 464.8,279.9 466.5,274.2 468.2,266.5 469.9,264.1 
			471.6,264.1 473.3,261.2 475,268.9 476.7,270.8 478.4,276.6 480.1,282.8 481.8,282.3 483.5,270.8 485.2,273.7 486.9,266.5 
			488.6,267.9 490.3,269.4 492,261.7 493.7,264.1 495.4,261.2 497.1,267 498.8,260.3 500.5,253.1 502.2,262.7 503.9,264.6 
			505.6,272.3 507.3,277.1 509,283.3 510.7,288.6 512.4,289.1 514.1,287.1 515.8,284.3 517.5,287.1 519.2,285.7 520.9,282.8 
			522.6,281.9 524.3,286.7 526,286.7 527.7,289.1 529.4,293.4 531.1,296.3 532.8,298.2 534.5,295.8 536.2,291.9 537.9,294.3 
			539.6,293.9 541.3,289.1 543,289.1 544.7,289.1 546.4,291 548.1,286.2 549.8,289.5 551.5,289.5 553.2,294.3 554.9,284.7 
			556.6,286.7 558.3,282.3 560,283.3 561.7,289.1 563.4,288.1 565.1,289.1 566.8,282.3 568.5,279.5 570.2,278.5 571.9,277.1 
			573.6,278 575.3,273.7 577,278 578.7,278.5 580.4,277.1 582.1,274.2 583.8,269.4 585.5,266 587.2,271.3 588.9,266 590.6,268.4 
			592.3,270.8 594,268.9 595.7,271.8 597.4,275.1 599.1,277.5 600.8,286.2 602.5,285.7 604.2,280.4 605.9,275.6 607.6,271.3 
			609.3,274.7 611,270.8 612.7,267.9 614.4,274.7 616.1,275.1 617.8,273.2 619.5,279.5 621.2,281.9 622.9,284.3 624.6,287.6 
			626.3,280.9 628,283.3 629.7,284.3 631.4,281.9 633.1,289.1 634.8,286.2 636.5,285.7 638.2,280.9 639.9,287.6 641.6,289.5 
			643.3,282.3 645,275.6 646.7,265.1 648.4,271.3 650.1,267.9 651.8,265.1 653.5,258.8 655.2,265.1 656.9,259.8 658.6,261.7 
			660.3,260.7 662,269.9 663.7,277.5 665.4,281.9 667.1,286.7 668.8,290.5 670.5,293.4 672.2,283.3 673.9,283.8 675.6,278.5 
			677.3,279.5 679,277.1 680.7,284.7 682.4,284.3 684.1,288.6 685.8,286.7 687.5,288.1 689.2,276.1 690.9,274.7 692.6,273.7 
			694.3,277.5 696,263.1 697.7,270.8 699.4,272.7 701.1,262.2 702.8,267.5 704.5,262.7 706.2,269.9 707.9,284.3 709.6,284.3 
			711.3,279 713,280.9 714.7,283.8 716.4,275.1 718.1,266 719.8,263.6 721.5,272.7 723.2,279.5 724.9,280.9 726.6,277.5 
			728.3,269.9 730,267 731.7,262.7 733.4,267.9 735.1,273.2 736.8,266 738.5,256.4 740.2,262.7 741.9,243.9 743.6,254.5 
			745.3,259.8 747,245.9 748.7,239.1 750.4,238.2 752.1,246.8 753.8,259.3 755.5,256.9 757.2,263.6 758.9,270.8 760.6,269.4 
			762.3,256.9 764,264.1 765.7,269.4 767.4,273.7 769.1,268.4 770.8,268.4 772.5,278 774.2,282.8 775.9,282.3 777.6,279 
			779.3,275.1 781,275.6 782.7,266 784.4,251.1 786.1,258.8 787.8,258.3 789.5,270.3 791.2,264.6 792.9,271.3 794.6,267.5 
			796.3,262.7 798,267 799.7,253.5 801.4,255.5 803.1,260.7 804.8,268.9 806.5,271.8 808.2,265.1 809.9,269.9 811.6,274.7 
			813.3,277.5 815,272.3 816.7,266.5 818.4,276.1 820.1,269.9 821.8,270.8 823.5,279.5 825.2,274.2 826.9,278 828.6,270.3 
			830.3,275.6 832,282.3 833.7,268.4 835.4,268.9 837.1,278 838.8,269.4 840.5,263.6 842.2,262.2 843.9,256.4 845.6,256.9 
			847.3,248.7 849,246.3 850.7,247.8 852.4,245.9 854.1,253.1 855.8,253.5 857.5,268.9 859.2,266 860.9,260.7 862.6,272.7 
			864.3,268.4 866,270.8 867.7,275.1 869.4,280.4 871.1,286.2 872.8,279.5 874.5,284.7 876.2,279.9 877.9,283.8 879.6,280.9 
			881.3,281.9 883,275.6 884.7,270.8 886.4,279.5 888.1,281.9 		"/>
		<polyline class="st4" points="39.8,269.4 41.5,270.3 43.2,267.9 44.9,275.1 46.6,279 48.3,288.1 50,279.5 51.7,268.9 53.4,271.8 
			55.1,279 56.8,272.7 58.5,267 60.2,271.8 61.9,281.4 63.6,274.7 65.3,269.9 67,269.9 68.7,265.1 70.4,254 72.1,256.4 73.8,254.5 
			75.5,245.9 77.2,247.8 78.9,253.5 80.6,260.3 82.3,261.2 84,262.7 85.7,254.5 87.4,264.1 89.1,274.2 90.8,267 92.5,257.4 
			94.2,256.4 95.9,259.8 97.6,265.1 99.3,270.3 101,279 102.7,276.1 104.4,280.4 106.1,277.5 107.8,282.3 109.5,284.7 111.2,279.5 
			112.9,281.9 114.6,281.9 116.3,288.1 118,285.7 119.7,279 121.4,283.8 123.1,285.2 124.8,287.1 126.5,285.7 128.2,289.1 
			129.9,294.3 131.6,296.7 133.3,295.3 135,295.8 136.7,293.9 138.4,289.5 140.1,279.9 141.8,279 143.5,275.6 145.2,283.8 
			146.9,287.6 148.6,289.5 150.3,280.9 152,279 153.7,279 155.4,286.7 157.1,277.5 158.8,282.3 160.5,286.7 162.2,287.6 
			163.9,288.1 165.6,290 167.3,281.9 169,279.9 170.7,275.6 172.4,271.8 174.1,270.8 175.8,271.3 177.5,268.9 179.2,256.9 
			180.9,264.1 182.6,266 184.3,272.7 186,263.6 187.7,259.8 189.4,262.7 191.1,270.8 192.8,262.2 194.5,268.9 196.2,272.7 
			197.9,260.7 199.6,274.2 201.3,278.5 203,277.5 204.7,267 206.4,264.1 208.1,265.5 209.8,277.5 211.5,276.6 213.2,263.1 
			214.9,269.4 216.6,269.9 218.3,279.9 220,282.3 221.7,282.3 223.4,288.6 225.1,296.3 226.8,291.9 228.5,284.7 230.2,283.8 
			231.9,279.5 233.6,275.6 235.3,268.4 237,264.1 238.7,263.1 240.4,268.4 242.1,286.7 243.8,288.6 245.5,286.7 247.2,284.7 
			248.9,283.8 250.6,280.9 252.3,282.8 254,284.3 255.7,278 257.4,276.6 259.1,276.1 260.8,272.7 262.5,276.6 264.2,269.9 
			265.9,277.5 267.6,271.3 269.3,268.9 271,271.8 272.7,274.2 274.4,271.3 276.1,285.7 277.8,291.5 279.5,290 281.2,286.2 
			282.9,283.8 284.6,288.1 286.3,287.6 288,276.6 289.7,272.3 291.4,271.3 293.1,263.6 294.8,262.2 296.5,272.3 298.2,282.8 
			299.9,277.1 301.6,278.5 303.3,285.2 305,288.1 306.7,282.3 308.4,284.7 310.1,291.9 311.8,283.3 313.5,282.3 315.2,278 
			316.9,268.4 318.6,275.1 320.3,268.9 322,277.1 323.7,267.9 325.4,257.4 327.1,269.4 328.8,275.6 330.5,270.8 332.2,275.6 
			333.9,282.3 335.6,284.3 337.3,286.7 339,281.9 340.7,280.9 342.4,281.9 344.1,284.7 345.8,283.3 347.5,280.4 349.2,271.3 
			350.9,266.5 352.6,265.5 354.3,267 356,265.1 357.7,249.2 359.4,250.2 361.1,243 362.8,267.5 364.5,260.3 366.2,263.1 
			367.9,265.1 369.6,279 371.3,270.8 373,267.9 374.7,265.1 376.4,266 378.1,283.3 379.8,287.6 381.5,289.1 383.2,282.8 
			384.9,284.3 386.6,281.4 388.3,275.6 390,280.9 391.7,275.1 393.4,277.1 395.1,275.1 396.8,273.2 398.5,269.9 400.2,271.3 
			401.9,271.3 403.6,273.2 405.3,283.3 407,293.4 408.7,293.4 410.4,287.6 412.1,285.2 413.8,282.3 415.5,285.7 417.2,282.3 
			418.9,280.9 420.6,279 422.3,276.6 424,285.7 425.7,281.9 427.4,283.8 429.1,289.5 430.8,293.9 432.5,290.5 434.2,289.1 
			435.9,288.1 437.6,283.3 439.3,284.7 441,281.9 442.7,276.6 444.4,282.3 446.1,284.7 447.8,285.2 449.5,280.4 451.2,274.2 
			452.9,258.8 454.6,273.2 456.3,273.7 458,278 459.7,281.9 461.4,279.9 463.1,279.9 464.8,284.3 466.5,286.2 468.2,284.3 
			469.9,275.6 471.6,275.1 473.3,279 475,268.9 476.7,262.7 478.4,256.9 480.1,258.8 481.8,253.1 483.5,250.7 485.2,234.3 
			486.9,221.9 488.6,238.2 490.3,244.4 492,253.1 493.7,249.2 495.4,263.6 497.1,263.6 498.8,265.5 500.5,264.1 502.2,265.1 
			503.9,265.1 505.6,267.5 507.3,260.7 509,246.3 510.7,250.2 512.4,238.7 514.1,245.9 515.8,236.3 517.5,250.2 519.2,233.9 
			520.9,243 522.6,251.1 524.3,256.9 526,258.8 527.7,267.5 529.4,259.8 531.1,253.5 532.8,251.6 534.5,248.7 536.2,251.6 
			537.9,262.2 539.6,263.1 541.3,251.1 543,250.2 544.7,251.6 546.4,257.9 548.1,250.7 549.8,254.5 551.5,251.1 553.2,257.9 
			554.9,257.9 556.6,265.1 558.3,276.1 560,282.8 561.7,280.4 563.4,280.9 565.1,282.3 566.8,283.3 568.5,280.4 570.2,279 
			571.9,282.8 573.6,276.6 575.3,278.5 577,283.8 578.7,290.5 580.4,292.4 582.1,293.9 583.8,289.5 585.5,288.6 587.2,287.1 
			588.9,288.1 590.6,285.7 592.3,279 594,278.5 595.7,279.5 597.4,264.6 599.1,263.6 600.8,262.7 602.5,253.5 604.2,271.8 
			605.9,277.1 607.6,272.7 609.3,279 611,281.4 612.7,277.5 614.4,272.7 616.1,279 617.8,281.4 619.5,276.1 621.2,279 622.9,277.1 
			624.6,280.4 626.3,280.9 628,275.1 629.7,281.4 631.4,289.5 633.1,291 634.8,291 636.5,289.5 638.2,286.7 639.9,285.2 
			641.6,278.5 643.3,278 645,275.6 646.7,267 648.4,266 650.1,273.2 651.8,286.7 653.5,288.1 655.2,280.9 656.9,286.2 658.6,288.1 
			660.3,286.2 662,286.2 663.7,281.4 665.4,281.9 667.1,290.5 668.8,288.1 670.5,289.1 672.2,287.6 673.9,281.4 675.6,290.5 
			677.3,285.7 679,281.9 680.7,286.2 682.4,281.4 684.1,275.1 685.8,281.4 687.5,270.8 689.2,265.1 690.9,251.1 692.6,256.9 
			694.3,272.7 696,265.1 697.7,270.3 699.4,273.7 701.1,269.4 702.8,267.5 704.5,260.7 706.2,263.1 707.9,264.6 709.6,263.1 
			711.3,260.7 713,268.9 714.7,256.9 716.4,262.2 718.1,266 719.8,266.5 721.5,273.7 723.2,277.5 724.9,279.9 726.6,272.3 
			728.3,269.9 730,264.6 731.7,272.3 733.4,273.2 735.1,268.9 736.8,267.5 738.5,264.6 740.2,250.2 741.9,269.4 743.6,274.7 
			745.3,276.6 747,270.8 748.7,269.9 750.4,269.9 752.1,265.5 753.8,265.1 755.5,271.3 757.2,271.3 758.9,268.4 760.6,269.4 
			762.3,254.5 764,259.8 765.7,260.7 767.4,254 769.1,259.8 770.8,263.1 772.5,260.7 774.2,259.8 775.9,254.5 777.6,271.8 
			779.3,259.8 781,263.1 782.7,260.3 784.4,266.5 786.1,265.5 787.8,270.8 789.5,266.5 791.2,257.9 792.9,269.9 794.6,260.7 
			796.3,254 798,256.9 799.7,263.1 801.4,259.8 803.1,257.9 804.8,242.5 806.5,249.2 808.2,254 809.9,253.1 811.6,253.5 813.3,255 
			815,265.5 816.7,263.1 818.4,268.9 820.1,274.2 821.8,270.8 823.5,265.5 825.2,261.2 826.9,266.5 828.6,270.8 830.3,260.3 
			832,262.2 833.7,262.7 835.4,270.3 837.1,263.1 838.8,267.5 840.5,265.5 842.2,274.7 843.9,280.4 845.6,282.3 847.3,271.3 
			849,274.2 850.7,272.7 852.4,280.4 854.1,285.2 855.8,276.6 857.5,285.7 859.2,287.6 860.9,291.5 862.6,282.3 864.3,279.9 
			866,281.9 867.7,279.9 869.4,272.7 871.1,269.9 872.8,276.6 874.5,286.7 876.2,281.9 877.9,286.7 879.6,284.7 881.3,288.1 
			883,283.3 884.7,281.4 886.4,276.1 888.1,282.3 		"/>
		<polyline class="st5" points="39.8,273.2 41.5,271.3 43.2,271.3 44.9,267 46.6,267 48.3,273.2 50,277.5 51.7,284.3 53.4,292.4 
			55.1,282.3 56.8,274.7 58.5,278 60.2,276.6 61.9,279.9 63.6,281.9 65.3,278 67,278.5 68.7,272.7 70.4,289.5 72.1,280.9 
			73.8,285.2 75.5,288.6 77.2,293.9 78.9,296.7 80.6,287.1 82.3,273.7 84,271.8 85.7,265.1 87.4,256.9 89.1,254 90.8,258.3 
			92.5,257.9 94.2,264.6 95.9,262.2 97.6,263.6 99.3,275.1 101,273.7 102.7,278 104.4,279.9 106.1,281.4 107.8,285.2 109.5,289.1 
			111.2,290 112.9,286.7 114.6,278.5 116.3,274.2 118,272.7 119.7,278.5 121.4,271.3 123.1,284.7 124.8,288.1 126.5,283.3 
			128.2,264.6 129.9,271.3 131.6,269.9 133.3,270.8 135,264.6 136.7,255.5 138.4,260.3 140.1,270.3 141.8,269.9 143.5,280.9 
			145.2,280.9 146.9,271.3 148.6,280.9 150.3,282.8 152,277.1 153.7,278 155.4,273.7 157.1,276.1 158.8,273.2 160.5,275.6 
			162.2,271.8 163.9,279.9 165.6,279.5 167.3,272.7 169,260.3 170.7,255.9 172.4,262.2 174.1,265.5 175.8,270.8 177.5,274.2 
			179.2,267.9 180.9,270.8 182.6,276.1 184.3,273.2 186,275.1 187.7,278.5 189.4,275.1 191.1,272.7 192.8,277.1 194.5,283.8 
			196.2,281.4 197.9,275.1 199.6,265.5 201.3,270.8 203,264.6 204.7,264.6 206.4,262.2 208.1,267 209.8,263.1 211.5,265.5 
			213.2,250.2 214.9,242 216.6,246.8 218.3,257.4 220,261.2 221.7,259.8 223.4,254.5 225.1,248.3 226.8,248.3 228.5,255.5 
			230.2,247.8 231.9,262.2 233.6,270.8 235.3,262.7 237,251.6 238.7,254.5 240.4,254 242.1,243.5 243.8,233.9 245.5,246.3 
			247.2,258.8 248.9,255 250.6,260.7 252.3,273.2 254,267.9 255.7,264.1 257.4,258.8 259.1,253.5 260.8,266 262.5,273.2 
			264.2,285.7 265.9,291 267.6,288.1 269.3,292.4 271,287.1 272.7,287.1 274.4,276.6 276.1,273.2 277.8,273.2 279.5,271.8 
			281.2,279 282.9,279 284.6,283.3 286.3,274.2 288,264.6 289.7,265.1 291.4,266 293.1,273.2 294.8,270.3 296.5,278.5 298.2,283.8 
			299.9,279.5 301.6,281.9 303.3,273.2 305,266 306.7,281.9 308.4,280.9 310.1,275.6 311.8,264.6 313.5,264.6 315.2,258.3 
			316.9,256.4 318.6,256.4 320.3,264.1 322,277.1 323.7,279.5 325.4,280.4 327.1,280.9 328.8,285.2 330.5,283.3 332.2,288.1 
			333.9,292.9 335.6,290.5 337.3,285.7 339,283.8 340.7,281.9 342.4,278 344.1,276.1 345.8,282.3 347.5,283.3 349.2,283.3 
			350.9,281.4 352.6,290.5 354.3,296.7 356,292.4 357.7,287.6 359.4,280.4 361.1,271.8 362.8,257.9 364.5,267 366.2,268.9 
			367.9,263.1 369.6,256.9 371.3,259.3 373,257.4 374.7,264.6 376.4,269.4 378.1,260.7 379.8,263.1 381.5,255.9 383.2,265.1 
			384.9,262.2 386.6,263.6 388.3,251.1 390,258.3 391.7,253.1 393.4,247.8 395.1,257.9 396.8,277.5 398.5,265.1 400.2,266.5 
			401.9,267.5 403.6,250.2 405.3,248.7 407,238.2 408.7,235.3 410.4,242 412.1,250.2 413.8,263.6 415.5,263.1 417.2,263.6 
			418.9,267 420.6,268.4 422.3,264.1 424,263.1 425.7,256.9 427.4,257.4 429.1,267 430.8,268.9 432.5,275.6 434.2,275.1 
			435.9,275.1 437.6,275.6 439.3,274.2 441,276.1 442.7,277.5 444.4,278.5 446.1,281.4 447.8,284.7 449.5,290.5 451.2,287.1 
			452.9,284.3 454.6,286.2 456.3,284.7 458,285.2 459.7,286.2 461.4,284.3 463.1,279.5 464.8,279.9 466.5,279 468.2,273.2 
			469.9,278 471.6,277.1 473.3,273.7 475,265.1 476.7,267.5 478.4,263.1 480.1,261.2 481.8,261.2 483.5,272.7 485.2,277.1 
			486.9,283.3 488.6,283.3 490.3,274.7 492,268.4 493.7,272.7 495.4,277.1 497.1,284.7 498.8,278.5 500.5,275.6 502.2,273.7 
			503.9,282.8 505.6,282.3 507.3,287.1 509,275.1 510.7,269.9 512.4,265.5 514.1,257.4 515.8,257.4 517.5,258.3 519.2,268.4 
			520.9,276.1 522.6,279.5 524.3,286.7 526,283.3 527.7,281.9 529.4,278.5 531.1,283.3 532.8,276.6 534.5,279 536.2,269.9 
			537.9,266 539.6,263.1 541.3,266.5 543,267.5 544.7,277.5 546.4,281.9 548.1,278.5 549.8,278.5 551.5,279.9 553.2,278 
			554.9,288.6 556.6,282.3 558.3,278.5 560,280.4 561.7,274.2 563.4,282.3 565.1,284.3 566.8,281.4 568.5,277.1 570.2,273.7 
			571.9,280.9 573.6,273.2 575.3,281.9 577,280.9 578.7,281.9 580.4,282.3 582.1,272.3 583.8,278.5 585.5,267 587.2,259.3 
			588.9,258.8 590.6,252.1 592.3,253.5 594,250.2 595.7,259.3 597.4,267.9 599.1,272.3 600.8,262.7 602.5,261.2 604.2,260.3 
			605.9,247.8 607.6,251.6 609.3,245.4 611,252.1 612.7,246.3 614.4,255.5 616.1,249.2 617.8,242 619.5,246.8 621.2,251.6 
			622.9,260.7 624.6,266.5 626.3,276.6 628,276.1 629.7,280.9 631.4,279.5 633.1,281.4 634.8,274.7 636.5,269.4 638.2,262.2 
			639.9,251.6 641.6,250.7 643.3,260.3 645,264.6 646.7,273.7 648.4,272.7 650.1,274.2 651.8,277.5 653.5,276.1 655.2,276.6 
			656.9,281.9 658.6,283.8 660.3,288.1 662,288.1 663.7,279.5 665.4,274.2 667.1,263.1 668.8,272.7 670.5,278 672.2,285.7 
			673.9,283.3 675.6,279 677.3,279 679,270.8 680.7,266 682.4,253.5 684.1,259.3 685.8,270.3 687.5,269.9 689.2,274.2 690.9,269.9 
			692.6,266 694.3,267.9 696,260.3 697.7,262.2 699.4,262.7 701.1,263.6 702.8,268.4 704.5,264.6 706.2,270.3 707.9,262.2 
			709.6,273.7 711.3,281.9 713,271.3 714.7,272.3 716.4,274.7 718.1,282.8 719.8,288.1 721.5,286.7 723.2,279.9 724.9,283.3 
			726.6,285.7 728.3,282.3 730,284.3 731.7,286.7 733.4,275.1 735.1,283.8 736.8,285.7 738.5,281.9 740.2,284.7 741.9,291.5 
			743.6,287.1 745.3,278.5 747,271.8 748.7,277.1 750.4,267.9 752.1,257.4 753.8,260.3 755.5,258.3 757.2,259.3 758.9,253.5 
			760.6,255.9 762.3,267 764,261.2 765.7,262.2 767.4,267.9 769.1,276.1 770.8,271.8 772.5,269.9 774.2,267 775.9,276.1 
			777.6,274.7 779.3,282.3 781,288.1 782.7,284.7 784.4,279.9 786.1,277.5 787.8,276.6 789.5,264.6 791.2,272.7 792.9,261.2 
			794.6,268.9 796.3,270.8 798,273.2 799.7,277.5 801.4,277.5 803.1,264.1 804.8,267.5 806.5,275.1 808.2,277.5 809.9,275.6 
			811.6,275.1 813.3,280.9 815,284.7 816.7,283.3 818.4,276.6 820.1,267.5 821.8,272.7 823.5,269.9 825.2,262.7 826.9,255.9 
			828.6,257.9 830.3,250.2 832,261.7 833.7,262.7 835.4,267.5 837.1,264.1 838.8,281.9 840.5,277.1 842.2,265.1 843.9,272.7 
			845.6,286.7 847.3,277.5 849,281.9 850.7,279.5 852.4,273.7 854.1,272.7 855.8,273.7 857.5,262.7 859.2,258.3 860.9,269.9 
			862.6,266 864.3,261.2 866,262.7 867.7,268.9 869.4,268.4 871.1,272.3 872.8,269.9 874.5,269.4 876.2,274.2 877.9,270.3 
			879.6,268.4 881.3,259.3 883,261.7 884.7,270.3 886.4,262.7 888.1,260.3 		"/>
		<polyline class="st6" points="39.8,269.9 41.5,274.2 43.2,276.6 44.9,275.1 46.6,266.5 48.3,252.6 50,263.1 51.7,258.8 
			53.4,274.7 55.1,274.7 56.8,271.3 58.5,278 60.2,273.7 61.9,266.5 63.6,260.3 65.3,267.5 67,266.5 68.7,264.1 70.4,252.6 
			72.1,269.9 73.8,265.5 75.5,267.5 77.2,267 78.9,265.5 80.6,271.3 82.3,272.7 84,271.3 85.7,270.3 87.4,280.9 89.1,283.3 
			90.8,282.3 92.5,279.9 94.2,277.5 95.9,276.1 97.6,269.9 99.3,260.7 101,266 102.7,268.9 104.4,275.1 106.1,268.9 107.8,272.7 
			109.5,268.4 111.2,265.5 112.9,253.1 114.6,253.5 116.3,264.6 118,267.9 119.7,276.1 121.4,276.1 123.1,278 124.8,279.5 
			126.5,275.6 128.2,271.8 129.9,271.3 131.6,272.3 133.3,256.9 135,261.7 136.7,265.5 138.4,276.6 140.1,279 141.8,275.1 
			143.5,285.2 145.2,279.9 146.9,272.7 148.6,276.1 150.3,268.9 152,259.3 153.7,268.9 155.4,264.6 157.1,263.1 158.8,257.9 
			160.5,252.6 162.2,264.1 163.9,267 165.6,267.5 167.3,260.3 169,268.9 170.7,270.3 172.4,273.7 174.1,272.3 175.8,269.9 
			177.5,272.7 179.2,278.5 180.9,265.5 182.6,268.4 184.3,257.9 186,264.1 187.7,267.9 189.4,271.3 191.1,272.3 192.8,261.2 
			194.5,269.9 196.2,264.1 197.9,268.9 199.6,273.2 201.3,267.9 203,269.9 204.7,273.7 206.4,278.5 208.1,271.3 209.8,268.9 
			211.5,267.5 213.2,274.7 214.9,277.5 216.6,281.4 218.3,275.1 220,277.1 221.7,281.4 223.4,279.9 225.1,278.5 226.8,279 
			228.5,278 230.2,274.7 231.9,268.9 233.6,267.9 235.3,264.1 237,270.8 238.7,276.1 240.4,285.2 242.1,278 243.8,278 245.5,278.5 
			247.2,272.3 248.9,275.1 250.6,278.5 252.3,275.6 254,277.5 255.7,276.1 257.4,271.3 259.1,265.1 260.8,257.4 262.5,260.7 
			264.2,263.1 265.9,265.5 267.6,272.7 269.3,271.8 271,275.6 272.7,270.8 274.4,272.3 276.1,270.8 277.8,269.9 279.5,286.2 
			281.2,291.9 282.9,285.2 284.6,289.5 286.3,282.3 288,280.9 289.7,283.3 291.4,289.1 293.1,285.7 294.8,288.6 296.5,284.3 
			298.2,278.5 299.9,275.1 301.6,269.9 303.3,272.7 305,258.3 306.7,266.5 308.4,268.9 310.1,255.5 311.8,266 313.5,270.8 
			315.2,278 316.9,282.3 318.6,276.6 320.3,271.3 322,272.7 323.7,277.1 325.4,277.1 327.1,273.7 328.8,266.5 330.5,267 
			332.2,249.7 333.9,241.1 335.6,232.9 337.3,234.8 339,225.7 340.7,223.3 342.4,238.7 344.1,240.6 345.8,254.5 347.5,265.5 
			349.2,265.1 350.9,269.4 352.6,276.1 354.3,285.7 356,281.9 357.7,284.7 359.4,282.8 361.1,289.1 362.8,287.6 364.5,288.1 
			366.2,279.9 367.9,270.3 369.6,280.4 371.3,272.7 373,275.6 374.7,278.5 376.4,280.4 378.1,279 379.8,281.9 381.5,280.4 
			383.2,274.7 384.9,279 386.6,272.7 388.3,269.4 390,283.8 391.7,282.3 393.4,282.8 395.1,278 396.8,278 398.5,282.8 400.2,286.7 
			401.9,285.2 403.6,288.1 405.3,284.3 407,280.4 408.7,290.5 410.4,281.9 412.1,274.7 413.8,268.4 415.5,272.3 417.2,269.9 
			418.9,274.7 420.6,280.4 422.3,281.4 424,281.9 425.7,272.3 427.4,265.1 429.1,279 430.8,278 432.5,271.8 434.2,272.3 
			435.9,254.5 437.6,264.1 439.3,270.8 441,265.5 442.7,266 444.4,265.5 446.1,252.6 447.8,264.6 449.5,267 451.2,270.8 
			452.9,270.8 454.6,275.1 456.3,278 458,267 459.7,273.7 461.4,272.3 463.1,263.6 464.8,272.7 466.5,269.4 468.2,267.5 
			469.9,263.6 471.6,253.5 473.3,247.8 475,262.2 476.7,281.4 478.4,282.3 480.1,290 481.8,288.1 483.5,287.1 485.2,286.2 
			486.9,288.1 488.6,287.6 490.3,288.6 492,287.6 493.7,287.6 495.4,279 497.1,286.7 498.8,291 500.5,292.4 502.2,290.5 
			503.9,289.1 505.6,285.7 507.3,279 509,281.4 510.7,288.6 512.4,290.5 514.1,283.3 515.8,289.5 517.5,282.8 519.2,278.5 
			520.9,276.1 522.6,271.3 524.3,274.7 526,276.6 527.7,273.2 529.4,276.1 531.1,282.8 532.8,284.7 534.5,282.8 536.2,292.4 
			537.9,286.7 539.6,284.3 541.3,284.7 543,287.6 544.7,290.5 546.4,286.7 548.1,290 549.8,283.8 551.5,281.9 553.2,278.5 
			554.9,273.7 556.6,269.9 558.3,265.5 560,261.7 561.7,269.4 563.4,264.1 565.1,255 566.8,261.7 568.5,265.5 570.2,271.8 
			571.9,268.9 573.6,273.7 575.3,276.1 577,273.2 578.7,264.1 580.4,263.1 582.1,264.1 583.8,261.2 585.5,276.1 587.2,278 
			588.9,282.8 590.6,269.4 592.3,265.1 594,269.4 595.7,277.1 597.4,279.5 599.1,275.6 600.8,284.3 602.5,283.8 604.2,290 
			605.9,285.7 607.6,285.7 609.3,269.4 611,274.7 612.7,283.3 614.4,281.4 616.1,277.1 617.8,278.5 619.5,278.5 621.2,278.5 
			622.9,272.7 624.6,263.6 626.3,269.4 628,284.7 629.7,279.5 631.4,274.7 633.1,275.1 634.8,280.4 636.5,266.5 638.2,274.2 
			639.9,272.3 641.6,276.6 643.3,279 645,270.8 646.7,269.9 648.4,281.9 650.1,275.6 651.8,272.3 653.5,273.7 655.2,265.1 
			656.9,258.8 658.6,255.5 660.3,254.5 662,253.5 663.7,255.5 665.4,266.5 667.1,261.2 668.8,256.4 670.5,260.7 672.2,251.6 
			673.9,257.9 675.6,267 677.3,267.5 679,270.8 680.7,275.1 682.4,273.7 684.1,275.1 685.8,273.2 687.5,277.5 689.2,268.9 
			690.9,272.7 692.6,275.1 694.3,273.7 696,282.3 697.7,281.4 699.4,281.9 701.1,287.1 702.8,292.9 704.5,291 706.2,291.5 
			707.9,287.6 709.6,287.1 711.3,283.8 713,283.3 714.7,282.3 716.4,282.8 718.1,288.1 719.8,288.1 721.5,286.7 723.2,287.1 
			724.9,285.7 726.6,286.7 728.3,281.9 730,275.6 731.7,276.1 733.4,274.7 735.1,268.9 736.8,259.8 738.5,269.9 740.2,273.7 
			741.9,269.9 743.6,275.6 745.3,276.1 747,281.4 748.7,283.3 750.4,287.6 752.1,281.4 753.8,276.1 755.5,284.3 757.2,280.4 
			758.9,269.9 760.6,277.1 762.3,283.3 764,285.2 765.7,287.1 767.4,291.5 769.1,288.1 770.8,285.2 772.5,279 774.2,270.8 
			775.9,276.6 777.6,270.8 779.3,279.5 781,280.4 782.7,281.4 784.4,276.1 786.1,270.8 787.8,256.4 789.5,248.7 791.2,253.5 
			792.9,251.1 794.6,267.5 796.3,275.6 798,275.1 799.7,283.3 801.4,278 803.1,279.5 804.8,282.3 806.5,285.7 808.2,282.3 
			809.9,272.7 811.6,273.2 813.3,271.8 815,275.1 816.7,274.7 818.4,285.7 820.1,282.3 821.8,275.6 823.5,282.8 825.2,286.2 
			826.9,289.5 828.6,291 830.3,293.9 832,286.7 833.7,284.3 835.4,284.3 837.1,279.5 838.8,273.7 840.5,274.2 842.2,281.9 
			843.9,277.1 845.6,272.7 847.3,275.1 849,270.3 850.7,276.6 852.4,259.8 854.1,264.1 855.8,264.1 857.5,271.8 859.2,278 
			860.9,274.2 862.6,278 864.3,275.1 866,279.5 867.7,279 869.4,269.4 871.1,269.9 872.8,270.8 874.5,262.7 876.2,267 877.9,264.6 
			879.6,266 881.3,274.2 883,277.5 884.7,273.2 886.4,272.7 888.1,282.8 		"/>
		<polyline class="st7" points="39.8,268.4 41.5,265.5 43.2,267 44.9,255.9 46.6,260.7 48.3,271.8 50,273.7 51.7,266 53.4,269.9 
			55.1,272.7 56.8,260.3 58.5,258.3 60.2,264.6 61.9,261.7 63.6,261.2 65.3,261.2 67,262.7 68.7,276.6 70.4,278.5 72.1,275.1 
			73.8,278 75.5,277.1 77.2,268.4 78.9,271.8 80.6,270.8 82.3,270.8 84,251.1 85.7,263.1 87.4,260.7 89.1,250.2 90.8,262.2 
			92.5,265.5 94.2,263.6 95.9,259.3 97.6,261.2 99.3,257.9 101,243 102.7,247.3 104.4,252.6 106.1,261.7 107.8,266 109.5,261.7 
			111.2,261.7 112.9,255.9 114.6,263.1 116.3,267.9 118,267 119.7,274.7 121.4,272.7 123.1,269.4 124.8,261.7 126.5,263.6 
			128.2,270.8 129.9,275.1 131.6,269.4 133.3,266.5 135,274.2 136.7,275.1 138.4,267.9 140.1,266 141.8,271.3 143.5,274.7 
			145.2,265.1 146.9,270.3 148.6,253.5 150.3,258.8 152,262.7 153.7,263.6 155.4,267 157.1,273.7 158.8,271.8 160.5,274.2 
			162.2,267 163.9,265.1 165.6,271.8 167.3,278.5 169,274.7 170.7,272.3 172.4,265.1 174.1,264.6 175.8,277.5 177.5,272.7 
			179.2,271.3 180.9,271.3 182.6,269.4 184.3,273.7 186,276.6 187.7,289.5 189.4,282.3 191.1,281.4 192.8,278 194.5,266 
			196.2,277.5 197.9,271.8 199.6,274.7 201.3,267.5 203,266 204.7,265.1 206.4,272.3 208.1,266.5 209.8,263.6 211.5,262.7 
			213.2,269.4 214.9,274.2 216.6,267.5 218.3,265.5 220,265.5 221.7,271.8 223.4,274.2 225.1,267 226.8,271.8 228.5,273.7 
			230.2,279 231.9,278 233.6,279.5 235.3,288.1 237,283.3 238.7,280.9 240.4,272.7 242.1,279.5 243.8,281.9 245.5,286.2 
			247.2,286.7 248.9,289.1 250.6,290.5 252.3,286.2 254,288.1 255.7,290.5 257.4,291 259.1,288.6 260.8,295.8 262.5,291.9 
			264.2,287.6 265.9,272.7 267.6,275.6 269.3,266 271,268.4 272.7,275.6 274.4,267 276.1,267.5 277.8,267 279.5,271.3 281.2,270.8 
			282.9,266.5 284.6,259.8 286.3,266.5 288,269.4 289.7,270.3 291.4,253.1 293.1,261.7 294.8,267.5 296.5,271.3 298.2,269.4 
			299.9,273.7 301.6,270.8 303.3,267.9 305,267 306.7,262.7 308.4,270.8 310.1,261.2 311.8,263.1 313.5,255.9 315.2,248.7 
			316.9,262.7 318.6,269.9 320.3,267.9 322,259.8 323.7,251.6 325.4,258.3 327.1,257.4 328.8,260.7 330.5,260.3 332.2,255.5 
			333.9,257.4 335.6,259.3 337.3,259.8 339,267.9 340.7,269.9 342.4,267.9 344.1,278.5 345.8,277.1 347.5,272.3 349.2,273.2 
			350.9,277.1 352.6,272.7 354.3,261.2 356,265.5 357.7,268.9 359.4,270.3 361.1,274.7 362.8,260.3 364.5,270.3 366.2,275.6 
			367.9,277.5 369.6,269.9 371.3,272.3 373,267 374.7,278.5 376.4,285.2 378.1,281.9 379.8,285.7 381.5,279.9 383.2,283.3 
			384.9,280.9 386.6,279.9 388.3,281.9 390,279.5 391.7,280.4 393.4,280.4 395.1,286.7 396.8,287.1 398.5,288.1 400.2,287.6 
			401.9,289.5 403.6,278.5 405.3,271.8 407,284.3 408.7,279 410.4,280.4 412.1,276.6 413.8,282.8 415.5,285.7 417.2,275.1 
			418.9,274.7 420.6,268.9 422.3,263.1 424,264.1 425.7,257.9 427.4,267.9 429.1,262.2 430.8,257.4 432.5,259.8 434.2,256.9 
			435.9,251.1 437.6,259.3 439.3,254.5 441,249.7 442.7,250.2 444.4,249.2 446.1,254.5 447.8,239.6 449.5,245.9 451.2,241.1 
			452.9,254 454.6,256.9 456.3,249.7 458,261.7 459.7,264.6 461.4,265.5 463.1,257.9 464.8,251.1 466.5,253.5 468.2,268.9 
			469.9,272.7 471.6,274.2 473.3,274.2 475,281.4 476.7,282.3 478.4,288.1 480.1,275.6 481.8,282.3 483.5,284.3 485.2,278 
			486.9,284.7 488.6,284.7 490.3,287.6 492,284.3 493.7,277.1 495.4,271.8 497.1,269.9 498.8,272.7 500.5,277.1 502.2,279.5 
			503.9,267.9 505.6,275.6 507.3,282.8 509,282.8 510.7,276.6 512.4,288.6 514.1,284.7 515.8,278.5 517.5,285.2 519.2,280.4 
			520.9,273.7 522.6,280.9 524.3,272.7 526,276.1 527.7,274.2 529.4,268.4 531.1,268.4 532.8,272.7 534.5,274.7 536.2,273.7 
			537.9,273.2 539.6,270.8 541.3,273.7 543,272.7 544.7,264.1 546.4,259.8 548.1,265.1 549.8,261.7 551.5,263.6 553.2,265.1 
			554.9,257.9 556.6,265.5 558.3,255 560,257.9 561.7,255 563.4,251.6 565.1,261.2 566.8,265.1 568.5,257.9 570.2,250.2 
			571.9,257.4 573.6,249.2 575.3,253.1 577,238.7 578.7,243.5 580.4,246.3 582.1,253.5 583.8,261.2 585.5,272.3 587.2,269.4 
			588.9,273.7 590.6,273.2 592.3,285.2 594,284.3 595.7,278.5 597.4,278.5 599.1,276.6 600.8,286.2 602.5,292.4 604.2,284.7 
			605.9,278 607.6,278 609.3,266 611,263.6 612.7,262.7 614.4,261.7 616.1,251.1 617.8,258.3 619.5,246.3 621.2,238.2 622.9,234.3 
			624.6,236.7 626.3,237.7 628,228.1 629.7,235.8 631.4,250.7 633.1,242 634.8,237.7 636.5,259.3 638.2,261.2 639.9,269.9 
			641.6,270.3 643.3,262.7 645,267 646.7,274.2 648.4,263.6 650.1,267.5 651.8,266.5 653.5,279.9 655.2,274.2 656.9,277.5 
			658.6,280.9 660.3,279.9 662,272.3 663.7,274.7 665.4,263.1 667.1,260.7 668.8,259.8 670.5,253.1 672.2,256.4 673.9,265.5 
			675.6,260.3 677.3,264.6 679,268.9 680.7,274.2 682.4,278.5 684.1,279 685.8,278 687.5,267.9 689.2,278 690.9,276.6 692.6,281.9 
			694.3,281.9 696,290 697.7,283.3 699.4,279.5 701.1,279 702.8,270.8 704.5,268.4 706.2,265.5 707.9,254 709.6,255 711.3,257.4 
			713,258.3 714.7,258.8 716.4,266 718.1,264.1 719.8,265.5 721.5,265.5 723.2,260.3 724.9,257.9 726.6,261.7 728.3,266 730,266 
			731.7,267.9 733.4,270.8 735.1,263.6 736.8,266.5 738.5,267.9 740.2,269.4 741.9,274.2 743.6,272.3 745.3,277.1 747,281.4 
			748.7,280.9 750.4,285.7 752.1,289.1 753.8,290 755.5,286.7 757.2,288.1 758.9,287.6 760.6,288.1 762.3,282.3 764,278.5 
			765.7,270.8 767.4,267 769.1,279 770.8,274.7 772.5,275.6 774.2,275.1 775.9,274.2 777.6,278 779.3,278 781,280.4 782.7,275.1 
			784.4,275.1 786.1,271.8 787.8,279.5 789.5,279.5 791.2,277.5 792.9,272.3 794.6,263.6 796.3,272.3 798,269.9 799.7,279 
			801.4,289.1 803.1,293.4 804.8,289.5 806.5,284.3 808.2,279 809.9,283.3 811.6,287.6 813.3,283.3 815,283.8 816.7,280.9 
			818.4,276.1 820.1,267.9 821.8,273.2 823.5,272.7 825.2,277.1 826.9,280.9 828.6,282.8 830.3,269.4 832,284.7 833.7,289.1 
			835.4,281.9 837.1,278 838.8,280.4 840.5,282.3 842.2,273.7 843.9,279.9 845.6,281.9 847.3,279.5 849,273.7 850.7,271.8 
			852.4,279 854.1,275.1 855.8,275.1 857.5,266.5 859.2,271.3 860.9,275.6 862.6,272.7 864.3,264.1 866,252.1 867.7,245.4 
			869.4,248.3 871.1,254 872.8,253.1 874.5,275.1 876.2,279 877.9,279.5 879.6,282.8 881.3,272.3 883,265.5 884.7,268.9 
			886.4,260.7 888.1,262.7 		"/>
		<polyline class="st8" points="39.8,278 41.5,276.6 43.2,274.7 44.9,277.1 46.6,268.4 48.3,266.5 50,259.3 51.7,255.5 53.4,251.1 
			55.1,258.3 56.8,266 58.5,270.8 60.2,260.3 61.9,257.9 63.6,262.7 65.3,264.6 67,261.2 68.7,264.1 70.4,271.3 72.1,272.3 
			73.8,265.5 75.5,276.1 77.2,282.8 78.9,270.3 80.6,273.2 82.3,282.3 84,291 85.7,295.3 87.4,280.9 89.1,279.9 90.8,276.6 
			92.5,281.4 94.2,279 95.9,278 97.6,287.1 99.3,289.5 101,282.8 102.7,283.3 104.4,280.9 106.1,277.5 107.8,264.6 109.5,253.1 
			111.2,267.9 112.9,279.5 114.6,275.1 116.3,264.6 118,266 119.7,262.2 121.4,265.5 123.1,256.4 124.8,263.1 126.5,259.8 
			128.2,255.5 129.9,254.5 131.6,254 133.3,261.2 135,262.7 136.7,255.5 138.4,257.4 140.1,259.8 141.8,261.2 143.5,260.3 
			145.2,258.8 146.9,263.6 148.6,272.7 150.3,282.3 152,282.3 153.7,273.7 155.4,270.8 157.1,259.3 158.8,261.2 160.5,257.4 
			162.2,264.1 163.9,263.1 165.6,267 167.3,267 169,270.8 170.7,266.5 172.4,276.1 174.1,274.2 175.8,271.3 177.5,271.3 
			179.2,258.3 180.9,260.7 182.6,267 184.3,259.8 186,255 187.7,249.2 189.4,251.1 191.1,243.9 192.8,254 194.5,247.8 196.2,252.6 
			197.9,255.5 199.6,255.5 201.3,259.3 203,264.6 204.7,279.9 206.4,282.3 208.1,284.7 209.8,279 211.5,275.1 213.2,280.9 
			214.9,281.9 216.6,284.7 218.3,282.3 220,275.6 221.7,270.3 223.4,282.8 225.1,281.4 226.8,280.4 228.5,282.8 230.2,282.3 
			231.9,282.3 233.6,280.9 235.3,282.8 237,277.5 238.7,283.3 240.4,278.5 242.1,281.4 243.8,283.8 245.5,288.6 247.2,282.8 
			248.9,274.7 250.6,266.5 252.3,268.4 254,268.4 255.7,267.9 257.4,274.7 259.1,284.7 260.8,281.9 262.5,273.2 264.2,279.5 
			265.9,278.5 267.6,280.9 269.3,276.1 271,268.4 272.7,275.6 274.4,272.3 276.1,276.6 277.8,279.9 279.5,278 281.2,268.9 
			282.9,265.5 284.6,269.9 286.3,272.7 288,277.5 289.7,279.9 291.4,272.7 293.1,277.1 294.8,273.7 296.5,264.1 298.2,257.9 
			299.9,255.9 301.6,259.8 303.3,269.4 305,268.4 306.7,271.3 308.4,251.6 310.1,260.7 311.8,256.9 313.5,261.7 315.2,262.7 
			316.9,275.6 318.6,276.1 320.3,275.1 322,283.8 323.7,282.8 325.4,285.2 327.1,277.5 328.8,282.8 330.5,283.8 332.2,286.7 
			333.9,275.1 335.6,272.3 337.3,277.5 339,279 340.7,278 342.4,277.5 344.1,286.2 345.8,283.8 347.5,273.7 349.2,283.8 
			350.9,275.6 352.6,263.6 354.3,259.8 356,269.4 357.7,272.3 359.4,267.5 361.1,269.9 362.8,273.7 364.5,273.7 366.2,269.4 
			367.9,266 369.6,251.6 371.3,268.9 373,273.2 374.7,272.7 376.4,267 378.1,267 379.8,273.7 381.5,268.4 383.2,268.9 384.9,267.5 
			386.6,256.9 388.3,256.9 390,261.2 391.7,265.5 393.4,257.9 395.1,240.6 396.8,244.9 398.5,255.5 400.2,256.4 401.9,256.4 
			403.6,259.8 405.3,260.7 407,251.1 408.7,257.4 410.4,256.9 412.1,267 413.8,267.5 415.5,264.6 417.2,267.9 418.9,260.3 
			420.6,271.8 422.3,274.2 424,269.4 425.7,280.4 427.4,278 429.1,274.7 430.8,282.3 432.5,274.2 434.2,274.7 435.9,275.6 
			437.6,264.6 439.3,266 441,274.2 442.7,273.7 444.4,279.5 446.1,275.6 447.8,291.5 449.5,278 451.2,270.3 452.9,271.8 
			454.6,259.3 456.3,261.2 458,261.2 459.7,277.1 461.4,282.8 463.1,286.7 464.8,271.8 466.5,267.9 468.2,272.3 469.9,272.3 
			471.6,281.9 473.3,279.5 475,270.8 476.7,272.7 478.4,271.8 480.1,272.7 481.8,263.1 483.5,267.5 485.2,267.9 486.9,273.7 
			488.6,272.7 490.3,276.1 492,275.1 493.7,281.4 495.4,282.3 497.1,274.7 498.8,272.7 500.5,284.3 502.2,283.8 503.9,284.7 
			505.6,287.6 507.3,289.5 509,289.5 510.7,288.1 512.4,290.5 514.1,289.1 515.8,281.9 517.5,280.9 519.2,279 520.9,276.6 
			522.6,281.4 524.3,271.8 526,273.2 527.7,282.3 529.4,269.9 531.1,267 532.8,275.6 534.5,277.1 536.2,263.6 537.9,267 539.6,278 
			541.3,279.5 543,267.5 544.7,269.9 546.4,272.7 548.1,271.3 549.8,266 551.5,275.1 553.2,276.6 554.9,275.6 556.6,274.2 
			558.3,268.9 560,260.7 561.7,271.3 563.4,277.1 565.1,267 566.8,274.2 568.5,272.7 570.2,273.2 571.9,262.7 573.6,266.5 
			575.3,261.7 577,260.7 578.7,263.6 580.4,262.2 582.1,268.4 583.8,266.5 585.5,267.5 587.2,265.1 588.9,267.5 590.6,271.3 
			592.3,267 594,264.1 595.7,258.8 597.4,259.3 599.1,273.7 600.8,267.5 602.5,259.8 604.2,251.6 605.9,262.2 607.6,268.9 
			609.3,273.2 611,273.7 612.7,263.6 614.4,272.7 616.1,274.2 617.8,272.7 619.5,270.3 621.2,273.7 622.9,266.5 624.6,273.2 
			626.3,272.3 628,272.7 629.7,268.9 631.4,269.4 633.1,265.5 634.8,271.3 636.5,281.4 638.2,282.8 639.9,275.1 641.6,279.5 
			643.3,275.6 645,273.7 646.7,279 648.4,281.9 650.1,275.1 651.8,261.2 653.5,267.5 655.2,268.4 656.9,269.4 658.6,270.3 
			660.3,278 662,277.5 663.7,268.4 665.4,261.2 667.1,265.1 668.8,275.1 670.5,268.9 672.2,270.3 673.9,271.8 675.6,269.4 
			677.3,262.2 679,270.8 680.7,262.2 682.4,265.1 684.1,268.4 685.8,282.3 687.5,280.9 689.2,274.7 690.9,271.8 692.6,279.5 
			694.3,275.1 696,270.3 697.7,268.9 699.4,279.5 701.1,292.4 702.8,286.7 704.5,277.5 706.2,274.2 707.9,275.6 709.6,277.5 
			711.3,276.1 713,274.7 714.7,273.7 716.4,263.6 718.1,263.1 719.8,260.3 721.5,265.1 723.2,259.3 724.9,265.1 726.6,252.1 
			728.3,254 730,249.7 731.7,255.5 733.4,251.6 735.1,255.5 736.8,264.1 738.5,261.2 740.2,264.1 741.9,261.7 743.6,260.3 
			745.3,259.3 747,259.3 748.7,267 750.4,255.9 752.1,259.8 753.8,265.5 755.5,268.4 757.2,264.6 758.9,271.3 760.6,267.5 
			762.3,270.8 764,276.6 765.7,277.5 767.4,282.8 769.1,274.2 770.8,281.9 772.5,281.9 774.2,279.9 775.9,262.2 777.6,265.5 
			779.3,251.1 781,259.3 782.7,274.2 784.4,284.7 786.1,272.7 787.8,266.5 789.5,258.3 791.2,265.1 792.9,274.2 794.6,278 
			796.3,280.9 798,277.1 799.7,273.2 801.4,282.8 803.1,274.2 804.8,270.3 806.5,272.3 808.2,279.9 809.9,281.9 811.6,284.3 
			813.3,273.2 815,279 816.7,272.7 818.4,262.7 820.1,275.1 821.8,269.4 823.5,269.4 825.2,270.8 826.9,256.4 828.6,267 830.3,279 
			832,278.5 833.7,278 835.4,276.6 837.1,277.1 838.8,274.7 840.5,278 842.2,274.7 843.9,276.6 845.6,266.5 847.3,273.2 849,273.7 
			850.7,272.7 852.4,272.7 854.1,264.6 855.8,252.6 857.5,259.3 859.2,268.4 860.9,257.9 862.6,253.1 864.3,269.9 866,269.4 
			867.7,272.3 869.4,275.1 871.1,269.4 872.8,262.2 874.5,259.3 876.2,257.9 877.9,259.8 879.6,259.3 881.3,259.8 883,261.2 
			884.7,273.2 886.4,276.6 888.1,273.2 		"/>
		<polyline class="st9" points="39.8,271.8 41.5,270.3 43.2,269.9 44.9,276.1 46.6,276.1 48.3,270.3 50,269.9 51.7,278 53.4,276.6 
			55.1,270.3 56.8,267.9 58.5,256.4 60.2,263.6 61.9,261.7 63.6,264.1 65.3,264.6 67,262.2 68.7,257.9 70.4,265.1 72.1,271.3 
			73.8,263.1 75.5,264.6 77.2,252.6 78.9,265.1 80.6,267 82.3,262.7 84,274.7 85.7,283.3 87.4,285.7 89.1,276.6 90.8,271.8 
			92.5,273.7 94.2,271.8 95.9,267.5 97.6,267.9 99.3,276.1 101,269.4 102.7,260.7 104.4,273.7 106.1,281.9 107.8,278 109.5,286.7 
			111.2,288.1 112.9,277.1 114.6,279 116.3,278.5 118,277.5 119.7,276.6 121.4,276.1 123.1,277.1 124.8,276.1 126.5,276.1 
			128.2,275.6 129.9,280.4 131.6,280.4 133.3,285.2 135,288.6 136.7,282.3 138.4,276.6 140.1,279.5 141.8,283.8 143.5,276.1 
			145.2,276.1 146.9,277.5 148.6,264.6 150.3,267 152,275.1 153.7,274.7 155.4,283.3 157.1,282.3 158.8,284.3 160.5,279.5 
			162.2,276.6 163.9,274.2 165.6,278 167.3,274.7 169,276.6 170.7,278 172.4,286.2 174.1,286.2 175.8,277.1 177.5,281.4 
			179.2,284.3 180.9,284.7 182.6,280.9 184.3,284.7 186,279.5 187.7,267 189.4,269.9 191.1,268.4 192.8,267.9 194.5,265.5 
			196.2,262.7 197.9,278 199.6,272.7 201.3,277.1 203,280.4 204.7,276.1 206.4,273.7 208.1,271.3 209.8,263.1 211.5,267 
			213.2,267.9 214.9,271.8 216.6,269.4 218.3,269.4 220,272.7 221.7,267 223.4,268.4 225.1,264.6 226.8,255.5 228.5,264.1 
			230.2,273.2 231.9,267.9 233.6,268.9 235.3,276.6 237,281.9 238.7,280.9 240.4,288.1 242.1,286.2 243.8,283.3 245.5,282.3 
			247.2,284.7 248.9,284.3 250.6,285.2 252.3,271.8 254,270.8 255.7,271.8 257.4,273.2 259.1,277.1 260.8,280.9 262.5,276.1 
			264.2,282.3 265.9,284.7 267.6,290.5 269.3,284.3 271,281.9 272.7,275.6 274.4,279.5 276.1,282.8 277.8,275.6 279.5,275.6 
			281.2,282.8 282.9,281.9 284.6,274.2 286.3,281.4 288,272.3 289.7,269.9 291.4,279.9 293.1,269.4 294.8,271.3 296.5,272.7 
			298.2,265.1 299.9,271.8 301.6,276.1 303.3,269.4 305,264.1 306.7,262.7 308.4,270.8 310.1,272.3 311.8,273.7 313.5,275.1 
			315.2,279 316.9,284.3 318.6,283.3 320.3,273.7 322,270.8 323.7,272.7 325.4,283.3 327.1,280.4 328.8,268.9 330.5,273.2 
			332.2,269.4 333.9,274.7 335.6,275.1 337.3,277.1 339,283.8 340.7,283.3 342.4,273.7 344.1,264.1 345.8,258.3 347.5,261.2 
			349.2,267 350.9,273.7 352.6,262.7 354.3,273.7 356,273.7 357.7,275.6 359.4,274.7 361.1,273.7 362.8,273.2 364.5,275.1 
			366.2,277.5 367.9,281.9 369.6,288.6 371.3,287.1 373,288.6 374.7,288.1 376.4,279 378.1,279.5 379.8,279.9 381.5,287.1 
			383.2,289.1 384.9,283.3 386.6,278 388.3,278.5 390,262.2 391.7,262.2 393.4,266.5 395.1,267 396.8,265.1 398.5,266.5 
			400.2,266.5 401.9,273.2 403.6,265.5 405.3,280.4 407,278 408.7,279 410.4,284.3 412.1,278 413.8,273.2 415.5,264.6 417.2,271.8 
			418.9,269.4 420.6,251.1 422.3,265.1 424,275.6 425.7,270.3 427.4,274.7 429.1,262.2 430.8,271.8 432.5,271.3 434.2,278 
			435.9,272.7 437.6,282.8 439.3,280.9 441,281.9 442.7,285.7 444.4,281.4 446.1,283.3 447.8,279.9 449.5,285.2 451.2,287.6 
			452.9,289.1 454.6,293.9 456.3,288.1 458,281.9 459.7,272.3 461.4,269.4 463.1,277.5 464.8,277.5 466.5,282.8 468.2,275.6 
			469.9,280.9 471.6,283.8 473.3,282.3 475,287.6 476.7,282.3 478.4,279 480.1,282.8 481.8,285.7 483.5,283.3 485.2,284.3 
			486.9,275.1 488.6,267.5 490.3,268.9 492,263.6 493.7,268.9 495.4,263.1 497.1,272.3 498.8,286.7 500.5,282.3 502.2,280.9 
			503.9,275.1 505.6,275.1 507.3,271.8 509,279.5 510.7,277.5 512.4,269.9 514.1,269.9 515.8,281.4 517.5,269.9 519.2,275.6 
			520.9,270.3 522.6,260.7 524.3,267.9 526,265.5 527.7,249.7 529.4,264.6 531.1,251.6 532.8,260.7 534.5,249.7 536.2,253.5 
			537.9,250.7 539.6,255.9 541.3,263.6 543,274.2 544.7,280.4 546.4,275.6 548.1,273.2 549.8,271.8 551.5,274.2 553.2,272.7 
			554.9,271.3 556.6,273.2 558.3,268.9 560,279.5 561.7,281.4 563.4,281.9 565.1,278 566.8,276.6 568.5,281.9 570.2,291 571.9,291 
			573.6,293.4 575.3,288.6 577,288.6 578.7,290.5 580.4,286.2 582.1,278 583.8,276.1 585.5,273.2 587.2,268.9 588.9,269.4 
			590.6,275.1 592.3,267.9 594,276.6 595.7,272.3 597.4,265.5 599.1,265.1 600.8,261.2 602.5,262.7 604.2,247.3 605.9,254.5 
			607.6,257.4 609.3,264.1 611,267.5 612.7,284.3 614.4,279.5 616.1,285.7 617.8,288.1 619.5,286.2 621.2,281.9 622.9,279.9 
			624.6,272.3 626.3,270.3 628,272.7 629.7,277.1 631.4,276.1 633.1,280.4 634.8,268.4 636.5,262.2 638.2,262.7 639.9,267.9 
			641.6,268.9 643.3,270.3 645,269.4 646.7,270.3 648.4,275.1 650.1,272.3 651.8,281.4 653.5,267.5 655.2,270.3 656.9,276.6 
			658.6,269.4 660.3,263.1 662,264.6 663.7,262.2 665.4,250.7 667.1,258.8 668.8,253.5 670.5,252.1 672.2,255 673.9,244.9 
			675.6,238.7 677.3,255.5 679,261.7 680.7,266 682.4,274.7 684.1,272.3 685.8,266.5 687.5,269.4 689.2,271.8 690.9,284.7 
			692.6,287.1 694.3,294.3 696,286.7 697.7,287.1 699.4,281.9 701.1,272.7 702.8,269.9 704.5,279.9 706.2,272.3 707.9,283.3 
			709.6,279.9 711.3,282.8 713,268.4 714.7,272.7 716.4,277.5 718.1,264.6 719.8,270.3 721.5,263.6 723.2,262.2 724.9,256.9 
			726.6,263.1 728.3,266 730,270.3 731.7,269.9 733.4,276.6 735.1,279.9 736.8,280.4 738.5,278.5 740.2,280.9 741.9,278.5 
			743.6,279 745.3,277.5 747,280.4 748.7,287.6 750.4,277.1 752.1,279 753.8,282.8 755.5,284.3 757.2,280.9 758.9,275.1 
			760.6,287.1 762.3,290 764,286.7 765.7,277.1 767.4,271.3 769.1,269.9 770.8,271.8 772.5,272.7 774.2,272.3 775.9,267.9 
			777.6,267.5 779.3,279.5 781,270.3 782.7,270.8 784.4,277.5 786.1,284.3 787.8,291.9 789.5,292.9 791.2,285.2 792.9,281.9 
			794.6,285.7 796.3,274.2 798,275.1 799.7,275.1 801.4,270.8 803.1,280.9 804.8,279.5 806.5,271.3 808.2,275.6 809.9,273.7 
			811.6,264.6 813.3,277.1 815,277.1 816.7,271.3 818.4,262.2 820.1,267.9 821.8,266 823.5,263.1 825.2,270.3 826.9,278.5 
			828.6,268.4 830.3,269.9 832,266 833.7,275.1 835.4,273.2 837.1,285.2 838.8,289.1 840.5,291.5 842.2,287.6 843.9,275.6 
			845.6,270.3 847.3,282.3 849,278.5 850.7,271.3 852.4,273.2 854.1,276.6 855.8,279.5 857.5,274.7 859.2,275.6 860.9,274.7 
			862.6,279.5 864.3,282.3 866,278.5 867.7,281.9 869.4,279 871.1,279.9 872.8,284.3 874.5,271.8 876.2,272.7 877.9,270.8 
			879.6,278.5 881.3,273.7 883,273.7 884.7,269.4 886.4,268.4 888.1,251.6 		"/>
		<polyline class="st10" points="39.8,278.5 41.5,288.1 43.2,284.7 44.9,280.4 46.6,288.1 48.3,290 50,290.5 51.7,291 53.4,291 
			55.1,287.1 56.8,278.5 58.5,275.1 60.2,268.4 61.9,272.3 63.6,269.9 65.3,272.3 67,279.5 68.7,279.9 70.4,279.5 72.1,277.5 
			73.8,282.3 75.5,280.4 77.2,277.5 78.9,279.9 80.6,274.7 82.3,270.8 84,267.5 85.7,273.2 87.4,265.5 89.1,270.8 90.8,258.8 
			92.5,258.8 94.2,267.5 95.9,273.7 97.6,268.4 99.3,265.1 101,263.1 102.7,270.3 104.4,268.9 106.1,267.9 107.8,270.8 109.5,269.4 
			111.2,259.3 112.9,265.5 114.6,267 116.3,267.9 118,264.6 119.7,254.5 121.4,242.5 123.1,250.2 124.8,245.9 126.5,240.6 
			128.2,243 129.9,246.3 131.6,258.8 133.3,272.7 135,264.1 136.7,264.1 138.4,269.4 140.1,273.2 141.8,272.7 143.5,267.9 
			145.2,270.3 146.9,277.1 148.6,273.7 150.3,277.5 152,276.6 153.7,276.1 155.4,285.2 157.1,284.3 158.8,282.3 160.5,284.7 
			162.2,282.8 163.9,281.9 165.6,288.1 167.3,290 169,281.9 170.7,285.2 172.4,284.3 174.1,286.2 175.8,283.3 177.5,277.1 
			179.2,276.6 180.9,280.9 182.6,276.6 184.3,267.9 186,277.5 187.7,280.4 189.4,275.6 191.1,277.5 192.8,281.4 194.5,280.4 
			196.2,277.5 197.9,280.4 199.6,279 201.3,278.5 203,283.3 204.7,276.6 206.4,267.9 208.1,269.4 209.8,277.5 211.5,268.9 
			213.2,272.3 214.9,278 216.6,284.7 218.3,281.9 220,278.5 221.7,276.1 223.4,276.1 225.1,284.3 226.8,284.3 228.5,283.8 
			230.2,280.9 231.9,277.1 233.6,268.4 235.3,268.4 237,275.1 238.7,277.5 240.4,274.7 242.1,267.5 243.8,256.9 245.5,255 
			247.2,264.6 248.9,263.1 250.6,271.3 252.3,272.7 254,274.7 255.7,275.1 257.4,262.2 259.1,263.1 260.8,265.1 262.5,267.5 
			264.2,270.8 265.9,276.1 267.6,282.3 269.3,280.9 271,280.9 272.7,282.8 274.4,277.1 276.1,269.9 277.8,266.5 279.5,267.9 
			281.2,270.3 282.9,275.6 284.6,267 286.3,267.9 288,272.3 289.7,274.7 291.4,269.4 293.1,272.3 294.8,270.8 296.5,270.8 
			298.2,274.7 299.9,269.4 301.6,271.3 303.3,273.7 305,277.1 306.7,278.5 308.4,271.3 310.1,277.1 311.8,281.4 313.5,277.5 
			315.2,271.8 316.9,269.4 318.6,278.5 320.3,281.9 322,277.5 323.7,283.3 325.4,286.7 327.1,283.8 328.8,286.7 330.5,282.3 
			332.2,279.9 333.9,281.4 335.6,281.9 337.3,279.9 339,280.4 340.7,284.3 342.4,281.4 344.1,284.7 345.8,289.5 347.5,288.1 
			349.2,285.2 350.9,283.8 352.6,287.1 354.3,287.1 356,288.1 357.7,285.7 359.4,289.1 361.1,283.3 362.8,280.4 364.5,274.2 
			366.2,283.3 367.9,285.2 369.6,280.9 371.3,284.7 373,287.6 374.7,283.3 376.4,286.2 378.1,286.2 379.8,281.9 381.5,278 
			383.2,272.7 384.9,274.2 386.6,285.7 388.3,287.6 390,275.1 391.7,274.7 393.4,276.1 395.1,273.7 396.8,273.2 398.5,270.3 
			400.2,268.4 401.9,278 403.6,279.5 405.3,274.2 407,272.3 408.7,268.9 410.4,272.7 412.1,275.6 413.8,269.4 415.5,279.5 
			417.2,277.5 418.9,277.1 420.6,273.7 422.3,265.5 424,263.6 425.7,274.7 427.4,274.2 429.1,273.2 430.8,274.7 432.5,272.7 
			434.2,278 435.9,276.1 437.6,279.5 439.3,267.9 441,268.9 442.7,276.1 444.4,275.1 446.1,271.8 447.8,266.5 449.5,264.1 
			451.2,267.9 452.9,267.5 454.6,259.3 456.3,257.9 458,254.5 459.7,241.5 461.4,249.2 463.1,260.3 464.8,255.9 466.5,262.2 
			468.2,269.9 469.9,273.7 471.6,271.8 473.3,278 475,279.5 476.7,278.5 478.4,276.6 480.1,262.7 481.8,258.8 483.5,258.8 
			485.2,267 486.9,274.7 488.6,268.4 490.3,263.1 492,264.1 493.7,257.4 495.4,271.3 497.1,259.3 498.8,255 500.5,255 502.2,243 
			503.9,250.2 505.6,231.5 507.3,233.9 509,234.3 510.7,224.7 512.4,226.2 514.1,232.9 515.8,245.4 517.5,239.6 519.2,248.7 
			520.9,265.1 522.6,258.8 524.3,256.9 526,260.7 527.7,270.8 529.4,267.9 531.1,273.2 532.8,263.1 534.5,261.7 536.2,279.9 
			537.9,272.7 539.6,275.1 541.3,272.3 543,276.1 544.7,278.5 546.4,272.7 548.1,274.7 549.8,279.5 551.5,272.3 553.2,272.3 
			554.9,272.3 556.6,263.6 558.3,280.9 560,267.5 561.7,264.6 563.4,259.3 565.1,258.3 566.8,250.2 568.5,257.9 570.2,266.5 
			571.9,276.6 573.6,279.5 575.3,270.3 577,276.6 578.7,276.6 580.4,274.7 582.1,274.7 583.8,275.6 585.5,273.7 587.2,273.2 
			588.9,273.2 590.6,270.3 592.3,277.5 594,274.2 595.7,270.3 597.4,273.7 599.1,266 600.8,264.6 602.5,271.3 604.2,282.8 
			605.9,278.5 607.6,275.6 609.3,281.9 611,277.5 612.7,272.7 614.4,264.6 616.1,261.7 617.8,266 619.5,277.1 621.2,277.5 
			622.9,273.2 624.6,270.3 626.3,274.7 628,261.7 629.7,252.1 631.4,252.6 633.1,262.2 634.8,262.2 636.5,257.4 638.2,262.7 
			639.9,256.9 641.6,258.8 643.3,261.7 645,269.4 646.7,268.4 648.4,268.4 650.1,276.1 651.8,267 653.5,271.8 655.2,274.7 
			656.9,259.3 658.6,268.4 660.3,264.6 662,261.2 663.7,268.4 665.4,281.4 667.1,268.9 668.8,264.6 670.5,264.6 672.2,271.8 
			673.9,268.4 675.6,268.4 677.3,263.6 679,268.4 680.7,273.7 682.4,276.6 684.1,265.1 685.8,270.8 687.5,273.7 689.2,270.3 
			690.9,270.3 692.6,266.5 694.3,267.9 696,274.7 697.7,274.7 699.4,278.5 701.1,272.7 702.8,267.9 704.5,259.8 706.2,265.1 
			707.9,255 709.6,246.3 711.3,246.8 713,251.1 714.7,260.7 716.4,256.4 718.1,267.5 719.8,268.9 721.5,254 723.2,266 724.9,260.3 
			726.6,275.1 728.3,272.7 730,279 731.7,269.9 733.4,272.3 735.1,278.5 736.8,279 738.5,284.7 740.2,283.3 741.9,279 743.6,269.9 
			745.3,267.9 747,273.7 748.7,267 750.4,277.1 752.1,283.8 753.8,279 755.5,281.9 757.2,287.6 758.9,295.3 760.6,294.8 
			762.3,287.6 764,282.3 765.7,279.9 767.4,271.8 769.1,271.3 770.8,271.8 772.5,273.7 774.2,279 775.9,275.6 777.6,272.3 
			779.3,267.9 781,258.8 782.7,274.7 784.4,278 786.1,277.5 787.8,286.2 789.5,288.1 791.2,288.6 792.9,279 794.6,279.5 
			796.3,273.2 798,282.3 799.7,278.5 801.4,267.9 803.1,274.2 804.8,279 806.5,276.1 808.2,275.6 809.9,282.3 811.6,284.3 
			813.3,286.7 815,287.1 816.7,287.6 818.4,281.9 820.1,291 821.8,290 823.5,279 825.2,275.1 826.9,282.8 828.6,286.7 830.3,289.1 
			832,278.5 833.7,277.1 835.4,280.4 837.1,278.5 838.8,271.3 840.5,277.1 842.2,277.5 843.9,277.5 845.6,273.7 847.3,277.5 
			849,276.1 850.7,278.5 852.4,281.4 854.1,282.3 855.8,276.1 857.5,271.8 859.2,272.7 860.9,276.6 862.6,272.3 864.3,273.7 
			866,271.8 867.7,272.7 869.4,283.8 871.1,283.8 872.8,284.7 874.5,278 876.2,273.2 877.9,262.7 879.6,261.7 881.3,267.9 
			883,283.3 884.7,272.7 886.4,279.9 888.1,282.3 		"/>
		<polyline class="st11" points="39.8,266.5 41.5,267.5 43.2,271.8 44.9,273.2 46.6,262.2 48.3,260.3 50,261.2 51.7,270.3 
			53.4,254.5 55.1,255 56.8,265.5 58.5,270.8 60.2,279.5 61.9,270.3 63.6,273.2 65.3,275.6 67,276.1 68.7,274.7 70.4,269.9 
			72.1,264.1 73.8,272.3 75.5,257.9 77.2,267.9 78.9,265.5 80.6,262.2 82.3,259.3 84,266.5 85.7,264.6 87.4,267 89.1,269.4 
			90.8,270.8 92.5,273.7 94.2,269.4 95.9,275.6 97.6,274.2 99.3,281.9 101,284.3 102.7,281.4 104.4,266.5 106.1,268.9 107.8,273.7 
			109.5,278.5 111.2,285.2 112.9,283.8 114.6,281.4 116.3,279 118,275.1 119.7,279.5 121.4,285.2 123.1,290.5 124.8,289.1 
			126.5,293.9 128.2,294.3 129.9,290 131.6,285.2 133.3,287.6 135,289.1 136.7,284.7 138.4,279.5 140.1,272.3 141.8,260.7 
			143.5,251.1 145.2,260.3 146.9,253.5 148.6,270.3 150.3,272.3 152,269.9 153.7,262.2 155.4,253.1 157.1,270.3 158.8,278.5 
			160.5,279 162.2,280.4 163.9,276.6 165.6,279.9 167.3,282.3 169,279 170.7,285.7 172.4,284.7 174.1,290 175.8,294.8 177.5,288.1 
			179.2,287.6 180.9,285.2 182.6,274.7 184.3,272.3 186,272.7 187.7,269.9 189.4,268.4 191.1,277.5 192.8,272.3 194.5,271.3 
			196.2,268.9 197.9,275.6 199.6,275.6 201.3,283.3 203,270.3 204.7,279.5 206.4,278.5 208.1,281.9 209.8,286.2 211.5,285.2 
			213.2,292.9 214.9,283.8 216.6,278.5 218.3,277.5 220,274.2 221.7,286.7 223.4,283.8 225.1,279.5 226.8,280.4 228.5,279 
			230.2,273.2 231.9,272.3 233.6,270.3 235.3,268.4 237,273.2 238.7,266.5 240.4,267.5 242.1,268.4 243.8,270.3 245.5,260.7 
			247.2,266 248.9,268.4 250.6,260.7 252.3,254.5 254,244.4 255.7,246.3 257.4,262.7 259.1,270.8 260.8,270.8 262.5,263.1 
			264.2,248.3 265.9,239.6 267.6,235.3 269.3,243.9 271,251.1 272.7,248.3 274.4,255.9 276.1,259.8 277.8,259.8 279.5,265.1 
			281.2,272.3 282.9,277.1 284.6,282.3 286.3,290 288,291.5 289.7,286.2 291.4,280.4 293.1,274.7 294.8,264.6 296.5,267.5 
			298.2,271.3 299.9,268.9 301.6,274.7 303.3,267.9 305,276.1 306.7,267.9 308.4,279 310.1,274.7 311.8,275.1 313.5,281.9 
			315.2,286.2 316.9,283.3 318.6,280.9 320.3,286.7 322,282.3 323.7,279.5 325.4,274.7 327.1,271.3 328.8,269.4 330.5,269.9 
			332.2,277.1 333.9,279 335.6,281.4 337.3,266 339,267 340.7,273.7 342.4,272.3 344.1,267 345.8,264.6 347.5,267 349.2,260.3 
			350.9,262.2 352.6,265.1 354.3,258.3 356,257.4 357.7,270.3 359.4,273.2 361.1,272.7 362.8,274.2 364.5,268.9 366.2,249.7 
			367.9,256.9 369.6,270.8 371.3,270.8 373,264.6 374.7,270.8 376.4,274.2 378.1,268.9 379.8,271.8 381.5,280.4 383.2,274.7 
			384.9,281.4 386.6,264.1 388.3,275.1 390,278.5 391.7,279.5 393.4,290 395.1,290.5 396.8,283.3 398.5,282.3 400.2,282.8 
			401.9,279.9 403.6,278 405.3,277.5 407,281.4 408.7,276.6 410.4,269.4 412.1,263.6 413.8,260.7 415.5,264.1 417.2,267.9 
			418.9,267.5 420.6,259.3 422.3,263.6 424,253.5 425.7,246.8 427.4,260.3 429.1,269.9 430.8,272.7 432.5,277.1 434.2,270.3 
			435.9,278.5 437.6,279.5 439.3,287.1 441,283.8 442.7,275.6 444.4,272.7 446.1,274.7 447.8,267 449.5,261.2 451.2,273.7 
			452.9,273.2 454.6,273.7 456.3,270.3 458,276.1 459.7,274.7 461.4,270.3 463.1,266.5 464.8,257.9 466.5,260.3 468.2,258.8 
			469.9,264.1 471.6,261.2 473.3,266 475,267 476.7,264.6 478.4,266.5 480.1,271.3 481.8,272.3 483.5,276.1 485.2,284.3 
			486.9,283.8 488.6,280.9 490.3,269.9 492,282.8 493.7,286.7 495.4,280.4 497.1,282.8 498.8,279.5 500.5,279.9 502.2,277.5 
			503.9,272.7 505.6,267.5 507.3,263.1 509,268.4 510.7,279 512.4,283.3 514.1,290 515.8,284.7 517.5,288.1 519.2,289.1 
			520.9,282.8 522.6,277.1 524.3,275.1 526,274.2 527.7,263.6 529.4,269.9 531.1,267.9 532.8,258.3 534.5,265.5 536.2,263.1 
			537.9,267.9 539.6,258.3 541.3,253.5 543,255.5 544.7,241.5 546.4,244.4 548.1,254.5 549.8,261.2 551.5,263.6 553.2,266 
			554.9,268.4 556.6,263.6 558.3,273.7 560,276.1 561.7,268.9 563.4,267 565.1,278 566.8,275.1 568.5,275.6 570.2,277.1 
			571.9,262.2 573.6,267.9 575.3,267.5 577,269.9 578.7,257.4 580.4,261.7 582.1,270.3 583.8,275.1 585.5,284.3 587.2,286.7 
			588.9,287.6 590.6,294.3 592.3,292.9 594,290 595.7,284.3 597.4,282.3 599.1,284.7 600.8,289.1 602.5,293.4 604.2,296.3 
			605.9,294.8 607.6,287.1 609.3,289.5 611,286.7 612.7,286.7 614.4,286.2 616.1,289.5 617.8,286.7 619.5,282.8 621.2,285.7 
			622.9,291.5 624.6,290 626.3,280.4 628,284.7 629.7,279.9 631.4,274.7 633.1,271.3 634.8,276.6 636.5,276.1 638.2,269.4 
			639.9,275.6 641.6,270.3 643.3,273.2 645,279.9 646.7,270.8 648.4,262.2 650.1,255.9 651.8,260.3 653.5,257.4 655.2,263.1 
			656.9,272.7 658.6,268.9 660.3,273.2 662,276.6 663.7,280.9 665.4,281.9 667.1,284.3 668.8,283.8 670.5,279 672.2,283.3 
			673.9,285.2 675.6,287.6 677.3,286.7 679,284.3 680.7,274.2 682.4,274.2 684.1,267 685.8,262.7 687.5,268.4 689.2,281.9 
			690.9,278 692.6,265.1 694.3,244.9 696,256.4 697.7,247.8 699.4,241.5 701.1,249.7 702.8,267.5 704.5,282.3 706.2,268.4 
			707.9,274.2 709.6,267.9 711.3,269.9 713,278.5 714.7,276.6 716.4,283.3 718.1,279.9 719.8,273.7 721.5,275.1 723.2,278.5 
			724.9,284.3 726.6,283.8 728.3,284.7 730,287.6 731.7,291.9 733.4,286.7 735.1,273.2 736.8,278 738.5,283.3 740.2,283.8 
			741.9,278.5 743.6,277.1 745.3,273.7 747,281.4 748.7,273.7 750.4,284.3 752.1,282.3 753.8,265.1 755.5,264.1 757.2,261.7 
			758.9,269.4 760.6,260.7 762.3,272.3 764,267 765.7,272.3 767.4,277.5 769.1,269.4 770.8,270.8 772.5,265.1 774.2,266 
			775.9,273.2 777.6,272.7 779.3,269.9 781,271.8 782.7,262.2 784.4,268.4 786.1,278.5 787.8,279.9 789.5,288.1 791.2,286.2 
			792.9,290 794.6,282.3 796.3,286.2 798,287.1 799.7,284.3 801.4,274.7 803.1,278.5 804.8,278.5 806.5,279.5 808.2,276.1 
			809.9,269.4 811.6,267.5 813.3,266.5 815,262.2 816.7,268.9 818.4,279.5 820.1,285.7 821.8,282.8 823.5,284.3 825.2,283.8 
			826.9,271.8 828.6,273.2 830.3,266 832,256.4 833.7,267.9 835.4,262.7 837.1,267.5 838.8,267 840.5,267 842.2,276.6 843.9,276.6 
			845.6,274.7 847.3,272.7 849,278.5 850.7,277.5 852.4,287.1 854.1,286.7 855.8,287.6 857.5,287.6 859.2,283.8 860.9,281.9 
			862.6,284.7 864.3,279.5 866,281.9 867.7,278 869.4,279 871.1,279.9 872.8,278 874.5,271.8 876.2,275.6 877.9,280.9 879.6,282.8 
			881.3,282.8 883,272.7 884.7,280.4 886.4,289.5 888.1,287.1 		"/>
	</g>
	<path class="st12" d="M39.8,2.5v300h850 M39.8,302.5v3 M209.8,302.5v3 M379.8,302.5v3 M549.8,302.5v3 M719.8,302.5v3 M889.6,302.5
		v3 M39.8,302.5h-3 M39.8,254.5h-3 M39.8,206.5h-3 M39.8,158.5h-3 M39.8,110.5h-3 M39.8,62.5h-3 M39.8,14.5h-3"/>
	<text transform="matrix(1 0 0 1 36.4678 317)" class="st13 st14 st15">0</text>
	<text transform="matrix(1 0 0 1 199.7959 317)" class="st13 st14 st15">100</text>
	<text transform="matrix(1 0 0 1 369.7959 317)" class="st13 st14 st15">200</text>
	<text transform="matrix(1 0 0 1 539.7959 317)" class="st13 st14 st15">300</text>
	<text transform="matrix(1 0 0 1 709.7959 317)" class="st13 st14 st15">400</text>
	<text transform="matrix(1 0 0 1 879.7959 317)" class="st13 st14 st15">500</text>
	<text transform="matrix(1 0 0 1 28.7334 307.5)" class="st13 st14 st15">0</text>
	<text transform="matrix(1 0 0 1 15.3896 259.5)" class="st13 st14 st15">100</text>
	<text transform="matrix(1 0 0 1 15.3896 211.5)" class="st13 st14 st15">200</text>
	<text transform="matrix(1 0 0 1 15.3896 163.4922)" class="st13 st14 st15">300</text>
	<text transform="matrix(1 0 0 1 15.3896 115.5)" class="st13 st14 st15">400</text>
	<text transform="matrix(1 0 0 1 15.3896 67.5)" class="st13 st14 st15">500</text>
	<text transform="matrix(1 0 0 1 15.3896 19.5)" class="st13 st14 st15">600</text>
	<text transform="matrix(1 0 0 1 417.1162 330.5)" class="st13 st14 st15">steps (thousands)</text>
	<text transform="matrix(0 -1 1 0 9.8037 204.1953)" class="st13 st14 st15">species abundance</text>
</g>
<text transform="matrix(1 0 0 1 60.1162 43.5)" class="st13 st14 st15">immigration rate = 1/10</text>
</svg>
